<?xml version="1.0" encoding="UTF-8"?>
<!DOCTYPE svg PUBLIC "-//W3C//DTD SVG 1.1//EN" "http://www.w3.org/Graphics/SVG/1.1/DTD/svg11.dtd">
<svg version="1.1" xmlns="http://www.w3.org/2000/svg" xmlns:xlink="http://www.w3.org/1999/xlink" x="0" y="0" width="310" height="60" viewBox="0, 0, 310, 60">
  <g id="Layer_1">
    <path d="M30.227,60 C13.658,60 0.227,46.569 0.227,30 C0.227,13.431 13.658,-0 30.227,-0 C46.795,-0 60.227,13.431 60.227,30 C60.227,46.569 46.795,60 30.227,60 z" fill="#333333"/>
    <g>
      <path d="M32.23,20.835 C32.23,22.047 31.247,23.03 30.035,23.03 C28.823,23.03 27.841,22.047 27.841,20.835 C27.841,19.623 28.823,18.641 30.035,18.641 C31.247,18.641 32.23,19.623 32.23,20.835 z" fill="#FFFFFF"/>
      <path d="M38.107,20.242 C37.747,19.88 37.16,19.88 36.796,20.244 C36.796,20.244 36.792,20.247 36.789,20.249 L33.327,23.739 L26.745,23.739 L23.282,20.249 C23.278,20.247 23.276,20.244 23.276,20.244 C22.911,19.88 22.324,19.88 21.964,20.242 C21.601,20.604 21.601,21.191 21.964,21.551 C21.967,21.554 21.969,21.555 21.969,21.557 L21.969,21.559 L27.326,27.059 L27.319,42.245 C27.319,42.936 27.878,43.494 28.571,43.494 C29.258,43.494 29.82,42.936 29.82,42.245 L29.818,32.095 L29.924,32.095 L30.146,32.095 L30.253,32.095 L30.252,42.244 C30.252,42.935 30.812,43.493 31.499,43.493 C32.193,43.493 32.752,42.935 32.752,42.244 L32.745,27.059 L38.101,21.559 L38.101,21.557 C38.102,21.555 38.104,21.554 38.107,21.551 C38.469,21.191 38.469,20.604 38.107,20.242 z" fill="#FFFFFF"/>
    </g>
    <g>
      <path d="M20.029,25.244 C20.029,26.114 19.324,26.819 18.454,26.819 C17.584,26.819 16.878,26.114 16.878,25.244 C16.878,24.373 17.584,23.668 18.454,23.668 C19.324,23.668 20.029,24.373 20.029,25.244 z" fill="#FFFFFF"/>
      <path d="M24.249,24.817 C23.99,24.557 23.569,24.557 23.308,24.819 C23.308,24.819 23.305,24.821 23.303,24.823 L20.817,27.329 L16.091,27.329 L13.605,24.823 C13.603,24.821 13.601,24.819 13.601,24.819 C13.339,24.557 12.918,24.557 12.659,24.817 C12.399,25.078 12.399,25.499 12.659,25.757 C12.661,25.76 12.662,25.76 12.663,25.762 L12.663,25.763 L16.508,29.712 L16.504,40.615 C16.504,41.111 16.905,41.511 17.403,41.511 C17.896,41.511 18.299,41.111 18.299,40.615 L18.298,33.327 L18.374,33.327 L18.534,33.327 L18.61,33.327 L18.609,40.614 C18.609,41.11 19.012,41.511 19.505,41.511 C20.003,41.511 20.404,41.11 20.404,40.614 L20.399,29.712 L24.245,25.763 L24.245,25.762 C24.245,25.76 24.247,25.76 24.249,25.757 C24.509,25.499 24.509,25.078 24.249,24.817 z" fill="#FFFFFF"/>
    </g>
    <g>
      <path d="M43.122,25.244 C43.122,26.114 42.416,26.819 41.546,26.819 C40.676,26.819 39.971,26.114 39.971,25.244 C39.971,24.373 40.676,23.668 41.546,23.668 C42.416,23.668 43.122,24.373 43.122,25.244 z" fill="#FFFFFF"/>
      <path d="M47.341,24.817 C47.082,24.557 46.661,24.557 46.4,24.819 C46.4,24.819 46.397,24.821 46.395,24.823 L43.909,27.329 L39.184,27.329 L36.697,24.823 C36.695,24.821 36.693,24.819 36.693,24.819 C36.431,24.557 36.01,24.557 35.751,24.817 C35.491,25.078 35.491,25.499 35.751,25.757 C35.753,25.76 35.755,25.76 35.755,25.762 L35.755,25.763 L39.601,29.712 L39.596,40.615 C39.596,41.111 39.997,41.511 40.495,41.511 C40.988,41.511 41.392,41.111 41.392,40.615 L41.39,33.327 L41.466,33.327 L41.626,33.327 L41.703,33.327 L41.701,40.614 C41.701,41.11 42.104,41.511 42.597,41.511 C43.095,41.511 43.496,41.11 43.496,40.614 L43.492,29.712 L47.337,25.763 L47.337,25.762 C47.338,25.76 47.339,25.76 47.341,25.757 C47.601,25.499 47.601,25.078 47.341,24.817 z" fill="#FFFFFF"/>
    </g>
    <g>
      <path d="M16.255,16.604 L43.816,16.506" fill="#FFFFFF"/>
      <path d="M16.255,16.604 L43.816,16.506" fill-opacity="0" stroke="#FFFFFF" stroke-width="1.3"/>
    </g>
    <path d="M76.321,11.691 L76.158,11.691" fill-opacity="0" stroke="#000000" stroke-width="1"/>
    <text transform="matrix(1, 0, 0, 1, 285.82, 19.555)">
      <tspan x="-220.18" y="7" font-family="Avenir-Black" font-size="24" fill="#FFFFFF">The Hand of Hur, Inc. </tspan>
    </text>
    <text transform="matrix(1, 0, 0, 1, 157.62, 45.555)">
      <tspan x="-91.98" y="4" font-family="Desyrel" font-size="18" fill="#FFFFFF">(Jason &amp; Norah Skipper)</tspan>
    </text>
  </g>
</svg>
