<?xml version="1.0" encoding="UTF-8"?>
<!DOCTYPE svg PUBLIC "-//W3C//DTD SVG 1.1//EN" "http://www.w3.org/Graphics/SVG/1.1/DTD/svg11.dtd">
<svg version="1.1" xmlns="http://www.w3.org/2000/svg" xmlns:xlink="http://www.w3.org/1999/xlink" x="0" y="0" width="310" height="60" viewBox="0, 0, 310, 60">
  <g id="Layer_1">
    <path d="M30.227,60 C13.658,60 0.227,46.569 0.227,30 C0.227,13.431 13.658,-0 30.227,-0 C46.795,-0 60.227,13.431 60.227,30 C60.227,46.569 46.795,60 30.227,60 z" fill="#333333"/>
    <g>
      <path d="M32.23,20.835 C32.23,22.047 31.247,23.03 30.035,23.03 C28.823,23.03 27.841,22.047 27.841,20.835 C27.841,19.623 28.823,18.641 30.035,18.641 C31.247,18.641 32.23,19.623 32.23,20.835 z" fill="#FFFFFF"/>
      <path d="M38.107,20.242 C37.747,19.88 37.16,19.88 36.796,20.244 C36.796,20.244 36.792,20.247 36.789,20.249 L33.327,23.739 L26.745,23.739 L23.282,20.249 C23.278,20.247 23.276,20.244 23.276,20.244 C22.911,19.88 22.324,19.88 21.964,20.242 C21.601,20.604 21.601,21.191 21.964,21.551 C21.967,21.554 21.969,21.555 21.969,21.557 L21.969,21.559 L27.326,27.059 L27.319,42.245 C27.319,42.936 27.878,43.494 28.571,43.494 C29.258,43.494 29.82,42.936 29.82,42.245 L29.818,32.095 L29.924,32.095 L30.146,32.095 L30.253,32.095 L30.252,42.244 C30.252,42.935 30.812,43.493 31.499,43.493 C32.193,43.493 32.752,42.935 32.752,42.244 L32.745,27.059 L38.101,21.559 L38.101,21.557 C38.102,21.555 38.104,21.554 38.107,21.551 C38.469,21.191 38.469,20.604 38.107,20.242 z" fill="#FFFFFF"/>
    </g>
    <g>
      <path d="M20.029,25.244 C20.029,26.114 19.324,26.819 18.454,26.819 C17.584,26.819 16.878,26.114 16.878,25.244 C16.878,24.373 17.584,23.668 18.454,23.668 C19.324,23.668 20.029,24.373 20.029,25.244 z" fill="#FFFFFF"/>
      <path d="M24.249,24.817 C23.99,24.557 23.569,24.557 23.308,24.819 C23.308,24.819 23.305,24.821 23.303,24.823 L20.817,27.329 L16.091,27.329 L13.605,24.823 C13.603,24.821 13.601,24.819 13.601,24.819 C13.339,24.557 12.918,24.557 12.659,24.817 C12.399,25.078 12.399,25.499 12.659,25.757 C12.661,25.76 12.662,25.76 12.663,25.762 L12.663,25.763 L16.508,29.712 L16.504,40.615 C16.504,41.111 16.905,41.511 17.403,41.511 C17.896,41.511 18.299,41.111 18.299,40.615 L18.298,33.327 L18.374,33.327 L18.534,33.327 L18.61,33.327 L18.609,40.614 C18.609,41.11 19.012,41.511 19.505,41.511 C20.003,41.511 20.404,41.11 20.404,40.614 L20.399,29.712 L24.245,25.763 L24.245,25.762 C24.245,25.76 24.247,25.76 24.249,25.757 C24.509,25.499 24.509,25.078 24.249,24.817 z" fill="#FFFFFF"/>
    </g>
    <g>
      <path d="M43.122,25.244 C43.122,26.114 42.416,26.819 41.546,26.819 C40.676,26.819 39.971,26.114 39.971,25.244 C39.971,24.373 40.676,23.668 41.546,23.668 C42.416,23.668 43.122,24.373 43.122,25.244 z" fill="#FFFFFF"/>
      <path d="M47.341,24.817 C47.082,24.557 46.661,24.557 46.4,24.819 C46.4,24.819 46.397,24.821 46.395,24.823 L43.909,27.329 L39.184,27.329 L36.697,24.823 C36.695,24.821 36.693,24.819 36.693,24.819 C36.431,24.557 36.01,24.557 35.751,24.817 C35.491,25.078 35.491,25.499 35.751,25.757 C35.753,25.76 35.755,25.76 35.755,25.762 L35.755,25.763 L39.601,29.712 L39.596,40.615 C39.596,41.111 39.997,41.511 40.495,41.511 C40.988,41.511 41.392,41.111 41.392,40.615 L41.39,33.327 L41.466,33.327 L41.626,33.327 L41.703,33.327 L41.701,40.614 C41.701,41.11 42.104,41.511 42.597,41.511 C43.095,41.511 43.496,41.11 43.496,40.614 L43.492,29.712 L47.337,25.763 L47.337,25.762 C47.338,25.76 47.339,25.76 47.341,25.757 C47.601,25.499 47.601,25.078 47.341,24.817 z" fill="#FFFFFF"/>
    </g>
    <g>
      <path d="M16.255,16.604 L43.816,16.506" fill="#FFFFFF"/>
      <path d="M16.255,16.604 L43.816,16.506" fill-opacity="0" stroke="#FFFFFF" stroke-width="1.3"/>
    </g>
    <path d="M76.321,11.691 L76.158,11.691" fill-opacity="0" stroke="#000000" stroke-width="1"/>
    <path d="M70.656,12.875 L65.808,12.875 L65.808,9.563 L79.248,9.563 L79.248,12.875 L74.4,12.875 L74.4,26.555 L70.656,26.555 z" fill="#FFFFFF"/>
    <path d="M84.288,8.411 L84.288,16.475 L84.336,16.475 Q84.456,16.139 84.744,15.803 Q85.032,15.467 85.44,15.203 Q85.848,14.939 86.4,14.771 Q86.952,14.603 87.6,14.603 Q88.968,14.603 89.808,15.023 Q90.648,15.443 91.116,16.187 Q91.584,16.931 91.752,17.939 Q91.92,18.947 91.92,20.123 L91.92,26.555 L88.32,26.555 L88.32,20.843 Q88.32,20.339 88.284,19.799 Q88.248,19.259 88.068,18.803 Q87.888,18.347 87.516,18.059 Q87.144,17.771 86.448,17.771 Q85.752,17.771 85.32,18.023 Q84.888,18.275 84.66,18.695 Q84.432,19.115 84.36,19.643 Q84.288,20.171 84.288,20.747 L84.288,26.555 L80.688,26.555 L80.688,8.411 z" fill="#FFFFFF"/>
    <path d="M105.504,24.539 Q104.64,25.643 103.32,26.243 Q102,26.843 100.584,26.843 Q99.24,26.843 98.052,26.411 Q96.864,25.979 95.988,25.175 Q95.112,24.371 94.608,23.243 Q94.104,22.115 94.104,20.723 Q94.104,19.331 94.608,18.203 Q95.112,17.075 95.988,16.271 Q96.864,15.467 98.052,15.035 Q99.24,14.603 100.584,14.603 Q101.832,14.603 102.852,15.035 Q103.872,15.467 104.58,16.271 Q105.288,17.075 105.672,18.203 Q106.056,19.331 106.056,20.723 L106.056,21.851 L97.704,21.851 Q97.92,22.883 98.64,23.495 Q99.36,24.107 100.416,24.107 Q101.304,24.107 101.916,23.711 Q102.528,23.315 102.984,22.691 z M102.456,19.403 Q102.48,18.491 101.856,17.843 Q101.232,17.195 100.248,17.195 Q99.648,17.195 99.192,17.387 Q98.736,17.579 98.412,17.879 Q98.088,18.179 97.908,18.575 Q97.728,18.971 97.704,19.403 z" fill="#FFFFFF"/>
    <path d="M115.8,9.563 L119.544,9.563 L119.544,15.899 L126.816,15.899 L126.816,9.563 L130.56,9.563 L130.56,26.555 L126.816,26.555 L126.816,19.211 L119.544,19.211 L119.544,26.555 L115.8,26.555 z" fill="#FFFFFF"/>
    <path d="M140.88,25.091 L140.832,25.091 Q140.232,26.027 139.236,26.435 Q138.24,26.843 137.136,26.843 Q136.32,26.843 135.564,26.615 Q134.808,26.387 134.232,25.931 Q133.656,25.475 133.32,24.803 Q132.984,24.131 132.984,23.243 Q132.984,22.235 133.356,21.539 Q133.728,20.843 134.364,20.387 Q135,19.931 135.816,19.679 Q136.632,19.427 137.508,19.307 Q138.384,19.187 139.26,19.163 Q140.136,19.139 140.88,19.139 Q140.88,18.179 140.196,17.615 Q139.512,17.051 138.576,17.051 Q137.688,17.051 136.956,17.423 Q136.224,17.795 135.648,18.443 L133.728,16.475 Q134.736,15.539 136.08,15.071 Q137.424,14.603 138.864,14.603 Q140.448,14.603 141.468,14.999 Q142.488,15.395 143.1,16.163 Q143.712,16.931 143.952,18.047 Q144.192,19.163 144.192,20.627 L144.192,26.555 L140.88,26.555 z M139.992,21.443 Q139.584,21.443 138.972,21.479 Q138.36,21.515 137.796,21.683 Q137.232,21.851 136.836,22.187 Q136.44,22.523 136.44,23.123 Q136.44,23.771 136.992,24.083 Q137.544,24.395 138.144,24.395 Q138.672,24.395 139.164,24.251 Q139.656,24.107 140.04,23.843 Q140.424,23.579 140.652,23.171 Q140.88,22.763 140.88,22.211 L140.88,21.443 z" fill="#FFFFFF"/>
    <path d="M146.448,14.891 L149.904,14.891 L149.904,16.475 L149.952,16.475 Q150.12,16.139 150.432,15.803 Q150.744,15.467 151.176,15.203 Q151.608,14.939 152.16,14.771 Q152.712,14.603 153.36,14.603 Q154.728,14.603 155.568,15.023 Q156.408,15.443 156.876,16.187 Q157.344,16.931 157.512,17.939 Q157.68,18.947 157.68,20.123 L157.68,26.555 L154.08,26.555 L154.08,20.843 Q154.08,20.339 154.044,19.799 Q154.008,19.259 153.828,18.803 Q153.648,18.347 153.276,18.059 Q152.904,17.771 152.208,17.771 Q151.512,17.771 151.08,18.023 Q150.648,18.275 150.42,18.695 Q150.192,19.115 150.12,19.643 Q150.048,20.171 150.048,20.747 L150.048,26.555 L146.448,26.555 z" fill="#FFFFFF"/>
    <path d="M172.464,26.555 L169.152,26.555 L169.152,25.019 L169.104,25.019 Q168.888,25.331 168.54,25.655 Q168.192,25.979 167.724,26.243 Q167.256,26.507 166.692,26.675 Q166.128,26.843 165.528,26.843 Q164.232,26.843 163.176,26.399 Q162.12,25.955 161.364,25.151 Q160.608,24.347 160.2,23.243 Q159.792,22.139 159.792,20.819 Q159.792,19.595 160.164,18.479 Q160.536,17.363 161.22,16.499 Q161.904,15.635 162.888,15.119 Q163.872,14.603 165.12,14.603 Q166.248,14.603 167.22,14.951 Q168.192,15.299 168.816,16.139 L168.864,16.139 L168.864,8.411 L172.464,8.411 z M169.152,20.723 Q169.152,19.403 168.396,18.587 Q167.64,17.771 166.272,17.771 Q164.904,17.771 164.148,18.587 Q163.392,19.403 163.392,20.723 Q163.392,22.043 164.148,22.859 Q164.904,23.675 166.272,23.675 Q167.64,23.675 168.396,22.859 Q169.152,22.043 169.152,20.723 z" fill="#FFFFFF"/>
    <path d="M182.016,20.723 Q182.016,19.331 182.52,18.203 Q183.024,17.075 183.9,16.271 Q184.776,15.467 185.964,15.035 Q187.152,14.603 188.496,14.603 Q189.84,14.603 191.028,15.035 Q192.216,15.467 193.092,16.271 Q193.968,17.075 194.472,18.203 Q194.976,19.331 194.976,20.723 Q194.976,22.115 194.472,23.243 Q193.968,24.371 193.092,25.175 Q192.216,25.979 191.028,26.411 Q189.84,26.843 188.496,26.843 Q187.152,26.843 185.964,26.411 Q184.776,25.979 183.9,25.175 Q183.024,24.371 182.52,23.243 Q182.016,22.115 182.016,20.723 z M185.616,20.723 Q185.616,22.043 186.372,22.859 Q187.128,23.675 188.496,23.675 Q189.864,23.675 190.62,22.859 Q191.376,22.043 191.376,20.723 Q191.376,19.403 190.62,18.587 Q189.864,17.771 188.496,17.771 Q187.128,17.771 186.372,18.587 Q185.616,19.403 185.616,20.723 z" fill="#FFFFFF"/>
    <path d="M198.336,17.771 L195.96,17.771 L195.96,14.891 L198.336,14.891 L198.336,12.827 Q198.336,11.867 198.504,11.015 Q198.672,10.163 199.152,9.515 Q199.632,8.867 200.532,8.495 Q201.432,8.123 202.896,8.123 Q203.448,8.123 203.976,8.171 Q204.504,8.219 205.008,8.339 L204.84,11.387 Q204.528,11.267 204.264,11.207 Q204,11.147 203.664,11.147 Q202.8,11.147 202.368,11.519 Q201.936,11.891 201.936,13.043 L201.936,14.891 L204.6,14.891 L204.6,17.771 L201.936,17.771 L201.936,26.555 L198.336,26.555 z" fill="#FFFFFF"/>
    <path d="M213.528,9.563 L217.272,9.563 L217.272,15.899 L224.544,15.899 L224.544,9.563 L228.288,9.563 L228.288,26.555 L224.544,26.555 L224.544,19.211 L217.272,19.211 L217.272,26.555 L213.528,26.555 z" fill="#FFFFFF"/>
    <path d="M242.52,26.555 L239.064,26.555 L239.064,24.971 L239.016,24.971 Q238.824,25.307 238.524,25.643 Q238.224,25.979 237.792,26.243 Q237.36,26.507 236.808,26.675 Q236.256,26.843 235.608,26.843 Q234.24,26.843 233.388,26.423 Q232.536,26.003 232.068,25.259 Q231.6,24.515 231.444,23.507 Q231.288,22.499 231.288,21.323 L231.288,14.891 L234.888,14.891 L234.888,20.603 Q234.888,21.107 234.924,21.647 Q234.96,22.187 235.14,22.643 Q235.32,23.099 235.692,23.387 Q236.064,23.675 236.76,23.675 Q237.456,23.675 237.888,23.423 Q238.32,23.171 238.548,22.751 Q238.776,22.331 238.848,21.803 Q238.92,21.275 238.92,20.699 L238.92,14.891 L242.52,14.891 z" fill="#FFFFFF"/>
    <path d="M245.064,14.891 L248.664,14.891 L248.664,16.763 L248.712,16.763 Q249.288,15.683 250.08,15.143 Q250.872,14.603 252.072,14.603 Q252.384,14.603 252.696,14.627 Q253.008,14.651 253.272,14.723 L253.272,18.011 Q252.888,17.891 252.516,17.831 Q252.144,17.771 251.736,17.771 Q250.704,17.771 250.104,18.059 Q249.504,18.347 249.18,18.863 Q248.856,19.379 248.76,20.099 Q248.664,20.819 248.664,21.683 L248.664,26.555 L245.064,26.555 z" fill="#FFFFFF"/>
    <path d="M253.536,22.667 L256.992,22.667 L254.832,29.435 L251.76,29.435 z" fill="#FFFFFF"/>
    <path d="M267.24,9.563 L270.984,9.563 L270.984,26.555 L267.24,26.555 z" fill="#FFFFFF"/>
    <path d="M273.936,14.891 L277.392,14.891 L277.392,16.475 L277.44,16.475 Q277.608,16.139 277.92,15.803 Q278.232,15.467 278.664,15.203 Q279.096,14.939 279.648,14.771 Q280.2,14.603 280.848,14.603 Q282.216,14.603 283.056,15.023 Q283.896,15.443 284.364,16.187 Q284.832,16.931 285,17.939 Q285.168,18.947 285.168,20.123 L285.168,26.555 L281.568,26.555 L281.568,20.843 Q281.568,20.339 281.532,19.799 Q281.496,19.259 281.316,18.803 Q281.136,18.347 280.764,18.059 Q280.392,17.771 279.696,17.771 Q279,17.771 278.568,18.023 Q278.136,18.275 277.908,18.695 Q277.68,19.115 277.608,19.643 Q277.536,20.171 277.536,20.747 L277.536,26.555 L273.936,26.555 z" fill="#FFFFFF"/>
    <path d="M295.608,18.659 Q295.344,18.275 294.864,18.023 Q294.384,17.771 293.832,17.771 Q292.464,17.771 291.708,18.587 Q290.952,19.403 290.952,20.723 Q290.952,22.043 291.708,22.859 Q292.464,23.675 293.832,23.675 Q294.432,23.675 294.864,23.411 Q295.296,23.147 295.608,22.787 L297.984,25.283 Q297.144,26.147 296.004,26.495 Q294.864,26.843 293.832,26.843 Q292.488,26.843 291.3,26.411 Q290.112,25.979 289.236,25.175 Q288.36,24.371 287.856,23.243 Q287.352,22.115 287.352,20.723 Q287.352,19.331 287.856,18.203 Q288.36,17.075 289.236,16.271 Q290.112,15.467 291.3,15.035 Q292.488,14.603 293.832,14.603 Q294.864,14.603 296.004,14.951 Q297.144,15.299 297.984,16.163 z" fill="#FFFFFF"/>
    <path d="M299.352,24.491 Q299.352,24.035 299.52,23.627 Q299.688,23.219 299.988,22.919 Q300.288,22.619 300.696,22.451 Q301.104,22.283 301.56,22.283 Q302.016,22.283 302.424,22.451 Q302.832,22.619 303.132,22.919 Q303.432,23.219 303.6,23.627 Q303.768,24.035 303.768,24.491 Q303.768,24.947 303.6,25.355 Q303.432,25.763 303.132,26.063 Q302.832,26.363 302.424,26.531 Q302.016,26.699 301.56,26.699 Q301.104,26.699 300.696,26.531 Q300.288,26.363 299.988,26.063 Q299.688,25.763 299.52,25.355 Q299.352,24.947 299.352,24.491 z" fill="#FFFFFF"/>
    <path d="M75.14,34.597 Q75.292,34.73 75.311,34.958 Q75.33,35.186 75.121,35.376 Q73.905,36.516 72.889,37.732 Q71.872,38.948 71.141,40.183 Q70.409,41.418 70.001,42.634 Q69.592,43.85 69.592,44.99 Q69.592,46.624 70.466,47.65 Q71.34,48.676 73.221,49.17 Q73.525,49.246 73.639,49.426 Q73.753,49.607 73.715,49.873 Q73.677,50.082 73.487,50.224 Q73.297,50.367 72.955,50.291 Q70.637,49.816 69.535,48.4 Q68.433,46.985 68.433,45.009 Q68.433,43.584 68.937,42.178 Q69.44,40.772 70.267,39.432 Q71.093,38.093 72.148,36.877 Q73.202,35.661 74.285,34.597 Q74.513,34.35 74.751,34.378 Q74.988,34.407 75.14,34.597 z" fill="#FFFFFF"/>
    <path d="M82.588,42.805 Q82.664,43.926 82.588,44.895 Q82.512,45.864 82.246,46.69 Q81.98,47.517 81.496,48.22 Q81.011,48.923 80.27,49.531 Q79.605,50.063 78.931,50.376 Q78.256,50.69 77.639,50.785 Q77.021,50.88 76.489,50.766 Q75.957,50.652 75.596,50.329 Q75.33,50.101 75.302,49.797 Q75.273,49.493 75.425,49.246 Q75.539,49.037 75.748,48.923 Q75.957,48.809 76.223,48.847 Q76.489,48.885 76.708,49.018 Q76.926,49.151 77.002,49.36 Q77.135,49.379 77.363,49.379 Q77.591,49.379 77.886,49.293 Q78.18,49.208 78.541,49.018 Q78.902,48.828 79.339,48.467 Q79.909,47.992 80.28,47.45 Q80.65,46.909 80.869,46.244 Q81.087,45.579 81.154,44.771 Q81.22,43.964 81.163,42.938 Q81.049,40.601 80.897,38.701 Q80.745,36.801 80.783,35.528 Q80.65,35.433 80.527,35.328 Q80.403,35.224 80.422,35.053 Q80.422,34.825 80.574,34.483 Q80.726,34.141 80.878,33.932 Q81.068,33.723 81.334,33.656 Q81.6,33.59 81.847,33.685 Q82.075,33.761 82.199,33.922 Q82.322,34.084 82.284,34.312 Q82.246,34.464 82.199,34.682 Q82.151,34.901 82.151,35.072 Q82.17,35.756 82.218,36.649 Q82.265,37.542 82.322,38.539 Q82.379,39.537 82.455,40.629 Q82.531,41.722 82.588,42.805 z" fill="#FFFFFF"/>
    <path d="M94.938,45.959 Q95.128,46.206 95.081,46.529 Q95.033,46.852 94.729,47.042 Q94.083,47.403 93.257,47.697 Q92.43,47.992 91.727,48.068 Q90.891,48.144 90.445,47.973 Q89.998,47.802 89.675,47.308 Q89.542,47.137 89.438,46.795 Q89.333,46.453 89.333,46.187 Q89.314,46.035 89.191,46.006 Q89.067,45.978 88.915,46.092 Q88.706,46.225 88.412,46.462 Q88.117,46.7 87.785,46.985 Q87.452,47.27 87.11,47.574 Q86.768,47.878 86.464,48.125 Q85.742,48.676 85.115,48.704 Q84.488,48.733 84.089,48.372 Q83.595,47.935 83.595,47.061 Q83.614,46.643 83.728,46.234 Q83.842,45.826 84.032,45.446 Q84.317,44.876 84.735,44.325 Q85.153,43.774 85.619,43.289 Q86.084,42.805 86.559,42.415 Q87.034,42.026 87.433,41.76 Q87.775,41.532 88.212,41.275 Q88.649,41.019 89.153,40.895 Q89.656,40.772 90.207,40.848 Q90.758,40.924 91.309,41.38 Q91.556,41.589 91.575,41.836 Q91.594,42.083 91.48,42.292 Q91.328,42.558 90.996,42.643 Q90.663,42.729 90.359,42.539 Q89.922,42.197 89.4,42.282 Q88.877,42.368 88.174,42.843 Q87.832,43.071 87.405,43.441 Q86.977,43.812 86.578,44.249 Q86.179,44.686 85.828,45.151 Q85.476,45.617 85.267,46.054 Q85.153,46.282 85.115,46.605 Q85.077,46.928 85.229,47.042 Q85.438,47.213 85.837,46.871 Q86.122,46.624 86.55,46.263 Q86.977,45.902 87.433,45.531 Q87.889,45.161 88.336,44.819 Q88.782,44.477 89.124,44.268 Q89.409,44.097 89.704,44.03 Q89.998,43.964 90.226,44.021 Q90.454,44.078 90.587,44.268 Q90.72,44.458 90.72,44.781 Q90.701,45.161 90.73,45.493 Q90.758,45.826 90.853,46.073 Q90.967,46.396 91.167,46.51 Q91.366,46.624 91.689,46.605 Q91.936,46.567 92.259,46.481 Q92.582,46.396 92.905,46.282 Q93.228,46.168 93.542,46.044 Q93.855,45.921 94.083,45.807 Q94.368,45.674 94.577,45.731 Q94.786,45.788 94.938,45.959 z" fill="#FFFFFF"/>
    <path d="M100.011,40.962 Q99.897,41.133 99.698,41.228 Q99.498,41.323 99.232,41.228 Q98.966,41.133 98.7,40.962 Q98.434,40.962 98.016,41.066 Q97.598,41.171 97.142,41.342 Q96.686,41.513 96.24,41.731 Q95.793,41.95 95.47,42.178 Q94.976,42.501 94.957,42.786 Q94.957,43.033 95.413,43.28 Q95.983,43.584 96.534,43.831 Q97.085,44.078 97.731,44.572 Q98.168,44.933 98.358,45.446 Q98.548,45.959 98.548,46.453 Q98.548,46.985 98.377,47.507 Q98.206,48.03 97.921,48.448 Q97.427,49.208 96.734,49.873 Q96.04,50.538 95.071,51.07 Q94.634,51.317 94.159,51.317 Q93.703,51.317 93.266,51.108 Q92.867,50.899 92.782,50.576 Q92.696,50.253 92.81,49.987 Q92.943,49.702 93.238,49.597 Q93.532,49.493 93.893,49.721 Q94.045,49.835 94.235,49.825 Q94.425,49.816 94.577,49.721 Q95.204,49.341 95.803,48.78 Q96.401,48.22 96.724,47.688 Q96.933,47.365 97.028,47.061 Q97.123,46.757 97.123,46.491 Q97.142,46.016 96.8,45.674 Q96.439,45.351 95.831,45.056 Q95.223,44.762 94.501,44.439 Q93.855,44.173 93.532,43.774 Q93.209,43.375 93.209,42.919 Q93.209,42.482 93.551,42.007 Q93.893,41.532 94.577,41.095 Q94.938,40.848 95.432,40.582 Q95.926,40.316 96.477,40.097 Q97.028,39.879 97.627,39.727 Q98.225,39.575 98.795,39.556 Q99.175,39.537 99.479,39.66 Q99.783,39.784 99.954,39.993 Q100.163,40.221 100.163,40.487 Q100.163,40.753 100.011,40.962 z" fill="#FFFFFF"/>
    <path d="M105.559,45.807 Q105.92,45.37 105.778,44.895 Q105.635,44.42 105.198,44.116 Q104.913,44.116 104.524,44.125 Q104.134,44.135 103.792,44.116 Q103.26,44.116 102.947,43.935 Q102.633,43.755 102.728,43.47 Q102.633,43.413 102.529,43.451 Q102.424,43.489 102.272,43.546 Q101.873,43.812 101.436,44.401 Q100.999,44.99 100.885,45.731 Q100.714,46.643 100.999,47.061 Q101.303,47.517 102.006,47.517 Q102.557,47.536 103.004,47.45 Q103.45,47.365 103.792,47.213 Q104.286,47.004 104.742,46.624 Q105.198,46.244 105.559,45.807 z M108.086,43.489 Q108.086,43.641 108.01,43.793 Q107.934,43.945 107.782,44.021 Q107.459,44.116 106.927,44.116 Q107.041,44.268 107.146,44.534 Q107.25,44.8 107.26,45.142 Q107.269,45.484 107.146,45.883 Q107.022,46.282 106.68,46.681 Q105.635,47.916 104.4,48.467 Q103.868,48.714 103.279,48.809 Q102.69,48.904 102.025,48.923 Q100.296,48.961 99.65,47.859 Q99.137,46.966 99.46,45.446 Q99.574,44.876 99.812,44.353 Q100.049,43.831 100.391,43.394 Q100.733,42.957 101.151,42.615 Q101.569,42.273 102.025,42.045 Q102.443,41.836 102.899,41.845 Q103.355,41.855 103.735,42.216 Q103.906,42.159 104.115,42.149 Q104.324,42.14 104.476,42.178 Q104.799,42.216 105.16,42.377 Q105.521,42.539 105.749,42.748 L107.326,42.748 Q107.668,42.748 107.887,42.976 Q108.105,43.204 108.086,43.489 z" fill="#FFFFFF"/>
    <path d="M121.937,46.092 Q121.956,46.301 121.842,46.5 Q121.728,46.7 121.481,46.795 Q121.367,46.833 121.244,46.861 Q121.12,46.89 120.968,46.852 Q120.588,47.004 120.056,47.203 Q119.524,47.403 118.935,47.669 Q117.909,48.106 116.988,47.887 Q116.066,47.669 115.591,46.662 Q115.268,45.997 115.173,45.36 Q115.078,44.724 115.021,44.306 Q114.964,44.04 114.698,44.002 Q114.527,43.964 114.309,44.04 Q114.09,44.116 113.843,44.268 Q113.653,44.401 113.435,44.6 Q113.216,44.8 112.969,45.018 Q112.722,45.237 112.466,45.465 Q112.209,45.693 111.962,45.864 Q111.734,46.035 111.459,46.301 Q111.183,46.567 110.927,46.852 Q110.67,47.137 110.471,47.412 Q110.271,47.688 110.176,47.878 Q109.967,48.258 109.673,48.315 Q109.378,48.372 109.112,48.258 Q108.846,48.144 108.761,47.954 Q108.675,47.764 108.675,47.536 Q108.675,47.023 108.675,46.491 Q108.675,45.94 108.675,45.446 Q108.675,44.952 108.666,44.515 Q108.656,44.078 108.656,43.774 Q108.371,43.698 108.371,43.432 Q108.409,43.261 108.514,43.004 Q108.618,42.748 108.751,42.596 Q108.846,42.463 109.017,42.415 Q109.188,42.368 109.397,42.387 Q109.625,42.406 109.815,42.529 Q110.005,42.653 110.043,42.9 Q110.062,43.166 110.081,43.546 Q110.1,43.926 110.1,44.344 Q110.1,44.743 110.1,45.142 Q110.1,45.541 110.081,45.845 Q110.328,45.484 110.708,45.151 Q111.088,44.819 111.43,44.515 Q111.829,44.135 112.257,43.755 Q112.684,43.375 113.064,43.109 Q113.482,42.786 114.005,42.596 Q114.527,42.406 114.983,42.425 Q115.534,42.406 115.933,42.729 Q116.332,43.052 116.427,43.717 Q116.522,44.458 116.636,45.028 Q116.75,45.598 116.921,45.978 Q117.13,46.434 117.548,46.481 Q117.966,46.529 118.384,46.358 Q118.992,46.111 119.714,45.816 Q120.436,45.522 121.025,45.389 Q121.462,45.294 121.69,45.512 Q121.918,45.731 121.937,46.092 z" fill="#FFFFFF"/>
    <path d="M130.544,49.227 Q130.544,49.55 130.459,49.74 Q130.373,49.93 130.335,50.101 Q130.297,50.443 130.098,50.595 Q129.898,50.747 129.651,50.747 Q129.404,50.747 129.205,50.585 Q129.005,50.424 129.024,50.101 Q129.024,49.778 129.129,49.588 Q129.233,49.398 129.233,49.227 Q129.233,48.866 129.48,48.704 Q129.727,48.543 129.993,48.581 Q130.202,48.619 130.373,48.771 Q130.544,48.923 130.544,49.227 z M133.394,47.042 Q133.546,47.27 133.508,47.545 Q133.47,47.821 133.204,47.973 Q132.843,48.182 132.397,48.305 Q131.95,48.429 131.447,48.476 Q130.943,48.524 130.421,48.533 Q129.898,48.543 129.366,48.524 Q128.359,48.505 127.713,48.258 Q127.067,48.011 126.725,47.602 Q126.383,47.194 126.345,46.662 Q126.307,46.13 126.535,45.541 Q126.763,44.99 127.21,44.591 Q127.656,44.192 128.112,43.964 Q128.283,43.869 128.454,43.802 Q128.625,43.736 128.815,43.679 Q128.587,43.527 128.369,43.327 Q128.15,43.128 128.055,42.9 Q127.903,42.52 128.017,42.092 Q128.131,41.665 128.445,41.313 Q128.758,40.962 129.252,40.724 Q129.746,40.487 130.354,40.487 Q130.962,40.487 131.475,40.591 Q131.988,40.696 132.349,40.905 Q132.672,41.057 132.701,41.332 Q132.729,41.608 132.577,41.817 Q132.292,42.178 131.798,42.064 Q131.513,41.969 131.209,41.883 Q130.905,41.798 130.354,41.798 Q129.86,41.798 129.632,42.035 Q129.404,42.273 129.461,42.463 Q129.537,42.729 129.889,42.871 Q130.24,43.014 130.563,43.185 Q130.772,43.28 130.867,43.46 Q130.962,43.641 130.962,43.85 Q130.981,44.059 130.877,44.23 Q130.772,44.401 130.544,44.496 Q130.24,44.61 129.775,44.743 Q129.309,44.876 128.796,45.085 Q128.473,45.199 128.198,45.446 Q127.922,45.693 127.827,46.016 Q127.675,46.51 127.979,46.814 Q128.283,47.118 129.366,47.175 Q129.765,47.213 130.202,47.213 Q130.658,47.213 131.095,47.184 Q131.532,47.156 131.893,47.08 Q132.254,47.004 132.482,46.852 Q132.786,46.643 133.024,46.738 Q133.261,46.833 133.394,47.042 z M131.684,38.454 Q131.646,38.834 131.561,39.119 Q131.475,39.404 131.437,39.689 Q131.418,40.012 131.209,40.173 Q131,40.335 130.753,40.335 Q130.487,40.335 130.307,40.173 Q130.126,40.012 130.107,39.689 Q130.088,39.271 130.212,38.986 Q130.335,38.701 130.335,38.454 Q130.354,38.093 130.573,37.922 Q130.791,37.751 131.057,37.789 Q131.323,37.808 131.504,37.969 Q131.684,38.131 131.684,38.454 z" fill="#FFFFFF"/>
    <path d="M152.166,38.834 Q152.337,39.461 152.347,40.382 Q152.356,41.304 152.271,42.282 Q152.185,43.261 152.014,44.201 Q151.843,45.142 151.615,45.807 Q151.311,46.738 150.684,47.317 Q150.057,47.897 149.259,47.916 Q148.765,47.897 148.233,47.64 Q147.701,47.384 147.15,46.776 Q146.295,45.883 145.469,44.657 Q144.642,43.432 143.92,42.007 Q143.844,42.748 143.778,43.527 Q143.711,44.306 143.654,45.018 Q143.597,45.731 143.578,46.358 Q143.559,46.985 143.597,47.422 Q143.635,47.631 143.673,47.783 Q143.711,47.935 143.863,47.992 Q144.129,48.087 144.215,48.305 Q144.3,48.524 144.205,48.733 Q144.11,48.942 143.93,49.084 Q143.749,49.227 143.464,49.189 Q142.875,49.132 142.581,48.752 Q142.286,48.372 142.248,47.84 Q142.172,47.137 142.201,46.082 Q142.229,45.028 142.315,43.878 Q142.4,42.729 142.524,41.627 Q142.647,40.525 142.761,39.727 Q142.666,39.518 142.543,39.261 Q142.419,39.005 142.362,38.739 Q142.324,38.473 142.438,38.273 Q142.552,38.074 142.742,37.979 Q142.951,37.884 143.17,37.903 Q143.388,37.922 143.54,38.112 Q143.635,38.245 143.711,38.387 Q143.787,38.53 143.863,38.663 Q144.167,38.701 144.281,38.967 Q144.395,39.233 144.281,39.556 Q144.585,40.221 145.003,41.047 Q145.421,41.874 145.925,42.729 Q146.428,43.584 147.008,44.382 Q147.587,45.18 148.195,45.769 Q148.518,46.092 148.794,46.215 Q149.069,46.339 149.278,46.32 Q149.677,46.301 149.905,45.949 Q150.133,45.598 150.266,45.275 Q150.399,44.933 150.551,44.23 Q150.703,43.527 150.817,42.719 Q150.931,41.912 150.969,41.104 Q151.007,40.297 150.931,39.727 Q150.627,39.518 150.665,39.138 Q150.684,38.834 150.855,38.644 Q151.026,38.454 151.254,38.359 Q151.52,38.264 151.796,38.378 Q152.071,38.492 152.166,38.834 z" fill="#FFFFFF"/>
    <path d="M159.31,45.807 Q159.671,45.37 159.529,44.895 Q159.386,44.42 158.949,44.116 Q158.664,44.116 158.275,44.125 Q157.885,44.135 157.543,44.116 Q157.011,44.116 156.698,43.935 Q156.384,43.755 156.479,43.47 Q156.384,43.413 156.28,43.451 Q156.175,43.489 156.023,43.546 Q155.624,43.812 155.187,44.401 Q154.75,44.99 154.636,45.731 Q154.465,46.643 154.75,47.061 Q155.054,47.517 155.757,47.517 Q156.308,47.536 156.755,47.45 Q157.201,47.365 157.543,47.213 Q158.037,47.004 158.493,46.624 Q158.949,46.244 159.31,45.807 z M161.837,43.489 Q161.837,43.641 161.761,43.793 Q161.685,43.945 161.533,44.021 Q161.21,44.116 160.678,44.116 Q160.792,44.268 160.897,44.534 Q161.001,44.8 161.011,45.142 Q161.02,45.484 160.897,45.883 Q160.773,46.282 160.431,46.681 Q159.386,47.916 158.151,48.467 Q157.619,48.714 157.03,48.809 Q156.441,48.904 155.776,48.923 Q154.047,48.961 153.401,47.859 Q152.888,46.966 153.211,45.446 Q153.325,44.876 153.563,44.353 Q153.8,43.831 154.142,43.394 Q154.484,42.957 154.902,42.615 Q155.32,42.273 155.776,42.045 Q156.194,41.836 156.65,41.845 Q157.106,41.855 157.486,42.216 Q157.657,42.159 157.866,42.149 Q158.075,42.14 158.227,42.178 Q158.55,42.216 158.911,42.377 Q159.272,42.539 159.5,42.748 L161.077,42.748 Q161.419,42.748 161.638,42.976 Q161.856,43.204 161.837,43.489 z" fill="#FFFFFF"/>
    <path d="M169.665,43.66 Q169.532,43.869 169.314,43.945 Q169.095,44.021 168.81,43.869 Q168.601,43.774 168.44,43.745 Q168.278,43.717 168.126,43.755 Q167.822,43.793 167.414,43.926 Q167.005,44.059 166.549,44.249 Q166.093,44.439 165.647,44.686 Q165.2,44.933 164.801,45.18 Q164.478,45.389 164.25,45.598 Q164.022,45.807 163.927,45.978 Q163.775,46.244 163.718,46.481 Q163.661,46.719 163.623,46.985 Q163.585,47.346 163.386,47.507 Q163.186,47.669 162.92,47.669 Q162.654,47.669 162.445,47.479 Q162.236,47.289 162.217,46.909 Q162.198,46.548 162.198,46.073 Q162.198,45.598 162.198,45.123 Q162.198,44.629 162.227,44.182 Q162.255,43.736 162.293,43.394 Q162.16,43.356 162.132,43.242 Q162.103,43.128 162.179,43.014 Q162.293,42.843 162.369,42.672 Q162.445,42.501 162.521,42.311 Q162.616,42.045 162.854,41.978 Q163.091,41.912 163.357,41.969 Q163.566,42.045 163.728,42.216 Q163.889,42.387 163.832,42.653 Q163.794,42.824 163.756,43.052 Q163.718,43.28 163.69,43.527 Q163.661,43.774 163.652,44.011 Q163.642,44.249 163.642,44.42 Q163.775,44.268 163.899,44.173 Q164.022,44.078 164.174,43.964 Q164.592,43.679 165.143,43.394 Q165.694,43.109 166.264,42.871 Q166.834,42.634 167.395,42.482 Q167.955,42.33 168.392,42.311 Q168.772,42.292 169.076,42.406 Q169.38,42.52 169.551,42.634 Q169.817,42.843 169.817,43.147 Q169.817,43.432 169.665,43.66 z" fill="#FFFFFF"/>
    <path d="M180.381,45.959 Q180.571,46.206 180.524,46.529 Q180.476,46.852 180.172,47.042 Q179.526,47.403 178.7,47.697 Q177.873,47.992 177.17,48.068 Q176.334,48.144 175.888,47.973 Q175.441,47.802 175.118,47.308 Q174.985,47.137 174.881,46.795 Q174.776,46.453 174.776,46.187 Q174.757,46.035 174.634,46.006 Q174.51,45.978 174.358,46.092 Q174.149,46.225 173.855,46.462 Q173.56,46.7 173.228,46.985 Q172.895,47.27 172.553,47.574 Q172.211,47.878 171.907,48.125 Q171.185,48.676 170.558,48.704 Q169.931,48.733 169.532,48.372 Q169.038,47.935 169.038,47.061 Q169.057,46.643 169.171,46.234 Q169.285,45.826 169.475,45.446 Q169.76,44.876 170.178,44.325 Q170.596,43.774 171.062,43.289 Q171.527,42.805 172.002,42.415 Q172.477,42.026 172.876,41.76 Q173.218,41.532 173.655,41.275 Q174.092,41.019 174.596,40.895 Q175.099,40.772 175.65,40.848 Q176.201,40.924 176.752,41.38 Q176.999,41.589 177.018,41.836 Q177.037,42.083 176.923,42.292 Q176.771,42.558 176.439,42.643 Q176.106,42.729 175.802,42.539 Q175.365,42.197 174.843,42.282 Q174.32,42.368 173.617,42.843 Q173.275,43.071 172.848,43.441 Q172.42,43.812 172.021,44.249 Q171.622,44.686 171.271,45.151 Q170.919,45.617 170.71,46.054 Q170.596,46.282 170.558,46.605 Q170.52,46.928 170.672,47.042 Q170.881,47.213 171.28,46.871 Q171.565,46.624 171.993,46.263 Q172.42,45.902 172.876,45.531 Q173.332,45.161 173.779,44.819 Q174.225,44.477 174.567,44.268 Q174.852,44.097 175.147,44.03 Q175.441,43.964 175.669,44.021 Q175.897,44.078 176.03,44.268 Q176.163,44.458 176.163,44.781 Q176.144,45.161 176.173,45.493 Q176.201,45.826 176.296,46.073 Q176.41,46.396 176.61,46.51 Q176.809,46.624 177.132,46.605 Q177.379,46.567 177.702,46.481 Q178.025,46.396 178.348,46.282 Q178.671,46.168 178.985,46.044 Q179.298,45.921 179.526,45.807 Q179.811,45.674 180.02,45.731 Q180.229,45.788 180.381,45.959 z" fill="#FFFFFF"/>
    <path d="M191.762,45.731 Q191.895,45.978 191.819,46.263 Q191.743,46.548 191.42,46.7 Q190.565,47.08 189.853,47.327 Q189.14,47.574 188.342,47.593 Q187.62,47.612 186.974,47.403 Q186.328,47.194 185.834,46.567 Q185.492,46.13 185.312,45.579 Q185.131,45.028 185.036,44.667 Q184.922,44.192 184.656,44.144 Q184.39,44.097 183.896,44.401 Q183.63,44.553 183.231,44.847 Q182.832,45.142 182.405,45.503 Q181.977,45.864 181.569,46.263 Q181.16,46.662 180.856,47.023 Q180.647,47.289 180.381,47.384 Q180.115,47.479 179.878,47.431 Q179.64,47.384 179.46,47.184 Q179.279,46.985 179.26,46.643 Q179.146,45.104 179.137,43.65 Q179.127,42.197 179.289,40.914 Q179.45,39.632 179.792,38.568 Q180.134,37.504 180.704,36.706 Q180.894,36.421 181.179,36.383 Q181.464,36.345 181.711,36.459 Q181.996,36.611 182.091,36.877 Q182.186,37.143 181.92,37.466 Q181.407,38.074 181.132,39.024 Q180.856,39.974 180.733,41.066 Q180.609,42.159 180.6,43.261 Q180.59,44.363 180.609,45.237 Q180.875,44.952 181.246,44.629 Q181.616,44.306 181.987,44.011 Q182.357,43.717 182.709,43.47 Q183.06,43.223 183.288,43.071 Q183.839,42.748 184.4,42.615 Q184.96,42.482 185.416,42.653 Q185.834,42.805 186.072,43.128 Q186.309,43.451 186.423,44.021 Q186.499,44.42 186.661,44.914 Q186.822,45.408 187.031,45.655 Q187.24,45.921 187.487,46.054 Q187.734,46.187 188.285,46.187 Q188.798,46.187 189.397,45.997 Q189.995,45.807 190.85,45.427 Q191.173,45.275 191.401,45.379 Q191.629,45.484 191.762,45.731 z" fill="#FFFFFF"/>
    <path d="M204.834,33.324 Q205.29,33.742 204.796,34.388 Q204.492,34.749 203.846,35.309 Q203.2,35.87 202.412,36.525 Q201.623,37.181 200.835,37.874 Q200.046,38.568 199.457,39.214 Q198.659,40.069 198.659,40.772 Q198.659,41.399 199.381,42.083 Q199.628,42.33 200.018,42.672 Q200.407,43.014 200.825,43.375 Q201.243,43.736 201.633,44.087 Q202.022,44.439 202.288,44.686 Q203.542,45.978 203.542,47.213 Q203.561,47.726 203.371,48.201 Q203.181,48.676 202.839,49.113 Q202.497,49.531 202.108,49.873 Q201.718,50.215 201.338,50.5 Q200.958,50.785 200.597,51.003 Q200.236,51.222 199.951,51.374 Q199.628,51.526 199.353,51.44 Q199.077,51.355 198.925,51.07 Q198.773,50.842 198.83,50.566 Q198.887,50.291 199.21,50.101 Q199.457,49.968 199.79,49.778 Q200.122,49.588 200.455,49.36 Q200.787,49.132 201.101,48.856 Q201.414,48.581 201.661,48.258 Q202.079,47.726 202.079,47.194 Q202.06,46.51 201.243,45.674 Q200.996,45.427 200.607,45.075 Q200.217,44.724 199.809,44.372 Q199.4,44.021 199.011,43.688 Q198.621,43.356 198.374,43.128 Q197.12,42.026 197.12,40.829 Q197.101,39.689 198.374,38.321 Q198.963,37.675 199.666,37.029 Q200.369,36.383 201.044,35.822 Q201.718,35.262 202.288,34.796 Q202.858,34.331 203.2,34.008 Q203.276,33.704 203.447,33.476 Q203.618,33.248 203.884,33.153 Q204.169,33.058 204.416,33.115 Q204.663,33.172 204.834,33.324 z" fill="#FFFFFF"/>
    <path d="M213.916,48.22 Q213.821,48.448 213.603,48.609 Q213.384,48.771 213.118,48.714 Q212.263,48.524 211.294,48.087 Q210.325,47.65 209.413,47.127 Q208.501,46.605 207.741,46.054 Q206.981,45.503 206.582,45.085 Q206.563,45.313 206.554,45.607 Q206.544,45.902 206.535,46.196 Q206.525,46.491 206.516,46.757 Q206.506,47.023 206.506,47.194 Q206.468,47.536 206.278,47.707 Q206.088,47.878 205.822,47.878 Q205.575,47.878 205.357,47.707 Q205.138,47.536 205.138,47.194 Q205.1,46.358 205.119,45.275 Q205.138,44.192 205.309,43.033 Q205.442,42.159 205.642,41.285 Q205.841,40.411 206.145,39.594 Q206.449,38.777 206.839,38.045 Q207.228,37.314 207.741,36.744 Q207.95,36.535 208.235,36.525 Q208.52,36.516 208.729,36.668 Q208.919,36.82 208.986,37.067 Q209.052,37.314 208.862,37.637 Q208.102,38.72 207.646,39.822 Q207.19,40.924 206.943,42.197 Q207.19,42.026 207.694,41.836 Q208.197,41.646 208.815,41.484 Q209.432,41.323 210.107,41.209 Q210.781,41.095 211.389,41.076 Q212.054,41.038 212.567,41.133 Q212.928,41.171 213.071,41.389 Q213.213,41.608 213.194,41.855 Q213.175,42.159 212.957,42.377 Q212.738,42.596 212.358,42.501 Q212.187,42.463 211.94,42.472 Q211.693,42.482 211.427,42.482 Q210.933,42.52 210.401,42.615 Q209.869,42.71 209.366,42.843 Q208.862,42.976 208.425,43.128 Q207.988,43.28 207.703,43.432 Q207.437,43.546 207.39,43.745 Q207.342,43.945 207.57,44.173 Q207.95,44.496 208.644,44.971 Q209.337,45.446 210.164,45.921 Q210.99,46.396 211.845,46.795 Q212.7,47.194 213.422,47.327 Q213.802,47.422 213.907,47.688 Q214.011,47.954 213.916,48.22 z" fill="#FFFFFF"/>
    <path d="M221.763,46.301 Q221.782,46.529 221.621,46.757 Q221.459,46.985 221.079,47.023 Q220.813,47.061 220.348,47.203 Q219.882,47.346 219.36,47.536 Q218.837,47.726 218.296,47.906 Q217.754,48.087 217.355,48.182 Q216.158,48.467 215.484,48.172 Q214.809,47.878 214.505,46.776 Q214.41,46.415 214.401,45.93 Q214.391,45.446 214.429,45.085 Q214.467,44.591 214.572,44.116 Q214.676,43.641 214.809,43.261 Q214.695,43.223 214.695,43.109 Q214.695,42.995 214.733,42.881 Q214.809,42.71 214.961,42.453 Q215.113,42.197 215.265,42.045 Q215.455,41.893 215.693,41.874 Q215.93,41.855 216.139,41.931 Q216.405,42.026 216.548,42.225 Q216.69,42.425 216.557,42.672 Q216.348,43.09 216.13,43.774 Q215.911,44.458 215.873,45.085 Q215.854,45.465 215.873,45.769 Q215.892,46.073 215.949,46.282 Q216.044,46.662 216.282,46.785 Q216.519,46.909 217.032,46.814 Q217.355,46.757 217.868,46.567 Q218.381,46.377 218.942,46.158 Q219.502,45.94 220.044,45.769 Q220.585,45.598 220.965,45.598 Q221.345,45.579 221.545,45.807 Q221.744,46.035 221.763,46.301 z M218.077,37.789 Q218.305,37.941 218.419,38.178 Q218.533,38.416 218.533,38.682 Q218.533,38.929 218.419,39.185 Q218.305,39.442 218.058,39.613 Q217.735,39.841 217.317,39.822 Q216.899,39.803 216.557,39.48 Q216.234,39.138 216.244,38.634 Q216.253,38.131 216.728,37.789 Q217.013,37.58 217.393,37.58 Q217.773,37.58 218.077,37.789 z" fill="#FFFFFF"/>
    <path d="M228.128,44.249 Q228.147,44.819 227.767,45.351 Q227.387,45.883 226.646,46.282 Q226.532,46.339 226.352,46.424 Q226.171,46.51 225.953,46.605 Q225.734,46.7 225.525,46.804 Q225.316,46.909 225.183,46.985 Q224.993,47.099 224.727,47.232 Q224.461,47.365 224.157,47.498 Q223.853,47.631 223.549,47.716 Q223.245,47.802 222.998,47.802 Q222.599,47.783 222.371,47.583 Q222.143,47.384 222.124,47.099 Q222.124,46.719 222.485,46.358 Q222.675,46.206 222.932,46.158 Q223.188,46.111 223.397,46.206 Q223.473,46.206 223.625,46.149 Q223.777,46.092 223.958,46.016 Q224.138,45.94 224.319,45.835 Q224.499,45.731 224.651,45.636 Q224.784,45.56 224.974,45.474 Q225.164,45.389 225.345,45.313 Q225.525,45.237 225.677,45.18 Q225.829,45.123 225.905,45.066 Q226.247,44.876 226.39,44.667 Q226.532,44.458 226.532,44.268 Q226.532,44.021 226.323,43.793 Q226.114,43.565 225.734,43.394 Q225.506,43.28 225.107,43.118 Q224.708,42.957 224.224,42.795 Q223.739,42.634 223.217,42.491 Q222.694,42.349 222.219,42.292 Q222.086,43.527 221.972,44.895 Q221.858,46.263 221.782,47.631 Q221.706,48.999 221.668,50.291 Q221.63,51.583 221.649,52.666 Q221.934,52.837 221.991,53.236 Q222.01,53.426 221.934,53.692 Q221.858,53.958 221.668,54.129 Q221.478,54.338 221.25,54.414 Q221.022,54.49 220.823,54.442 Q220.623,54.395 220.471,54.224 Q220.319,54.053 220.281,53.768 Q220.243,53.616 220.234,53.397 Q220.224,53.179 220.224,52.97 Q220.205,51.526 220.253,50.072 Q220.3,48.619 220.386,47.222 Q220.471,45.826 220.576,44.543 Q220.68,43.261 220.775,42.14 Q220.642,42.121 220.509,42.121 Q220.376,42.121 220.262,42.121 Q220.129,42.102 220.015,42.102 Q219.92,42.102 219.768,42.064 Q219.502,41.969 219.379,41.798 Q219.255,41.627 219.255,41.437 Q219.255,41.133 219.464,40.886 Q219.673,40.639 220.11,40.658 Q222.105,40.753 223.711,41.19 Q225.316,41.627 226.513,42.197 Q227.349,42.577 227.739,43.128 Q228.128,43.679 228.128,44.249 z" fill="#FFFFFF"/>
    <path d="M236.583,44.249 Q236.602,44.819 236.222,45.351 Q235.842,45.883 235.101,46.282 Q234.987,46.339 234.807,46.424 Q234.626,46.51 234.408,46.605 Q234.189,46.7 233.98,46.804 Q233.771,46.909 233.638,46.985 Q233.448,47.099 233.182,47.232 Q232.916,47.365 232.612,47.498 Q232.308,47.631 232.004,47.716 Q231.7,47.802 231.453,47.802 Q231.054,47.783 230.826,47.583 Q230.598,47.384 230.579,47.099 Q230.579,46.719 230.94,46.358 Q231.13,46.206 231.387,46.158 Q231.643,46.111 231.852,46.206 Q231.928,46.206 232.08,46.149 Q232.232,46.092 232.413,46.016 Q232.593,45.94 232.774,45.835 Q232.954,45.731 233.106,45.636 Q233.239,45.56 233.429,45.474 Q233.619,45.389 233.8,45.313 Q233.98,45.237 234.132,45.18 Q234.284,45.123 234.36,45.066 Q234.702,44.876 234.845,44.667 Q234.987,44.458 234.987,44.268 Q234.987,44.021 234.778,43.793 Q234.569,43.565 234.189,43.394 Q233.961,43.28 233.562,43.118 Q233.163,42.957 232.679,42.795 Q232.194,42.634 231.672,42.491 Q231.149,42.349 230.674,42.292 Q230.541,43.527 230.427,44.895 Q230.313,46.263 230.237,47.631 Q230.161,48.999 230.123,50.291 Q230.085,51.583 230.104,52.666 Q230.389,52.837 230.446,53.236 Q230.465,53.426 230.389,53.692 Q230.313,53.958 230.123,54.129 Q229.933,54.338 229.705,54.414 Q229.477,54.49 229.278,54.442 Q229.078,54.395 228.926,54.224 Q228.774,54.053 228.736,53.768 Q228.698,53.616 228.689,53.397 Q228.679,53.179 228.679,52.97 Q228.66,51.526 228.708,50.072 Q228.755,48.619 228.841,47.222 Q228.926,45.826 229.031,44.543 Q229.135,43.261 229.23,42.14 Q229.097,42.121 228.964,42.121 Q228.831,42.121 228.717,42.121 Q228.584,42.102 228.47,42.102 Q228.375,42.102 228.223,42.064 Q227.957,41.969 227.834,41.798 Q227.71,41.627 227.71,41.437 Q227.71,41.133 227.919,40.886 Q228.128,40.639 228.565,40.658 Q230.56,40.753 232.166,41.19 Q233.771,41.627 234.968,42.197 Q235.804,42.577 236.194,43.128 Q236.583,43.679 236.583,44.249 z" fill="#FFFFFF"/>
    <path d="M241.485,42.33 Q241.618,41.741 241.409,41.551 Q241.257,41.456 241.029,41.494 Q240.801,41.532 240.63,41.627 Q240.383,41.779 240.041,42.121 Q239.642,42.52 239.272,43.099 Q238.901,43.679 238.711,44.287 Q239.129,44.211 239.585,44.021 Q240.041,43.831 240.44,43.565 Q240.839,43.299 241.115,42.985 Q241.39,42.672 241.485,42.33 z M245.418,46.054 Q245.551,46.301 245.466,46.586 Q245.38,46.871 245.019,46.985 Q244.582,47.137 243.898,47.412 Q243.214,47.688 242.397,47.935 Q241.58,48.182 240.668,48.305 Q239.756,48.429 238.882,48.277 Q237.989,48.125 237.533,47.65 Q236.659,46.814 236.944,45.275 Q237.058,44.553 237.315,43.926 Q237.571,43.299 237.875,42.786 Q238.179,42.273 238.493,41.874 Q238.806,41.475 239.072,41.209 Q239.338,40.943 239.604,40.724 Q239.87,40.506 240.079,40.411 Q240.307,40.297 240.583,40.211 Q240.858,40.126 241.153,40.097 Q241.447,40.069 241.732,40.107 Q242.017,40.145 242.264,40.297 Q242.549,40.468 242.701,40.734 Q242.853,41 242.91,41.313 Q242.967,41.627 242.939,41.978 Q242.91,42.33 242.834,42.653 Q242.663,43.28 242.198,43.821 Q241.732,44.363 241.105,44.781 Q240.478,45.199 239.756,45.474 Q239.034,45.75 238.369,45.807 Q238.312,46.282 238.521,46.557 Q238.73,46.833 239.148,46.909 Q239.794,47.061 240.564,46.937 Q241.333,46.814 242.084,46.586 Q242.834,46.358 243.509,46.092 Q244.183,45.826 244.62,45.693 Q244.924,45.598 245.124,45.721 Q245.323,45.845 245.418,46.054 z" fill="#FFFFFF"/>
    <path d="M251.612,43.66 Q251.479,43.869 251.261,43.945 Q251.042,44.021 250.757,43.869 Q250.548,43.774 250.387,43.745 Q250.225,43.717 250.073,43.755 Q249.769,43.793 249.361,43.926 Q248.952,44.059 248.496,44.249 Q248.04,44.439 247.594,44.686 Q247.147,44.933 246.748,45.18 Q246.425,45.389 246.197,45.598 Q245.969,45.807 245.874,45.978 Q245.722,46.244 245.665,46.481 Q245.608,46.719 245.57,46.985 Q245.532,47.346 245.333,47.507 Q245.133,47.669 244.867,47.669 Q244.601,47.669 244.392,47.479 Q244.183,47.289 244.164,46.909 Q244.145,46.548 244.145,46.073 Q244.145,45.598 244.145,45.123 Q244.145,44.629 244.174,44.182 Q244.202,43.736 244.24,43.394 Q244.107,43.356 244.079,43.242 Q244.05,43.128 244.126,43.014 Q244.24,42.843 244.316,42.672 Q244.392,42.501 244.468,42.311 Q244.563,42.045 244.801,41.978 Q245.038,41.912 245.304,41.969 Q245.513,42.045 245.675,42.216 Q245.836,42.387 245.779,42.653 Q245.741,42.824 245.703,43.052 Q245.665,43.28 245.637,43.527 Q245.608,43.774 245.599,44.011 Q245.589,44.249 245.589,44.42 Q245.722,44.268 245.846,44.173 Q245.969,44.078 246.121,43.964 Q246.539,43.679 247.09,43.394 Q247.641,43.109 248.211,42.871 Q248.781,42.634 249.342,42.482 Q249.902,42.33 250.339,42.311 Q250.719,42.292 251.023,42.406 Q251.327,42.52 251.498,42.634 Q251.764,42.843 251.764,43.147 Q251.764,43.432 251.612,43.66 z" fill="#FFFFFF"/>
    <path d="M258.832,39.689 Q258.832,41.114 258.319,42.52 Q257.806,43.926 256.98,45.265 Q256.153,46.605 255.108,47.83 Q254.063,49.056 252.98,50.101 Q252.752,50.348 252.515,50.319 Q252.277,50.291 252.125,50.101 Q251.973,49.968 251.954,49.74 Q251.935,49.512 252.144,49.322 Q253.36,48.182 254.377,46.966 Q255.393,45.75 256.125,44.515 Q256.856,43.28 257.265,42.064 Q257.673,40.848 257.673,39.708 Q257.673,38.074 256.799,37.048 Q255.925,36.022 254.044,35.528 Q253.74,35.452 253.626,35.271 Q253.512,35.091 253.55,34.825 Q253.588,34.616 253.778,34.473 Q253.968,34.331 254.31,34.407 Q255.469,34.635 256.324,35.129 Q257.179,35.623 257.73,36.307 Q258.281,36.991 258.557,37.846 Q258.832,38.701 258.832,39.689 z" fill="#FFFFFF"/>
  </g>
</svg>
